<?xml version="1.0" standalone="no"?>
<!DOCTYPE svg PUBLIC "-//W3C//DTD SVG 20010904//EN"
 "http://www.w3.org/TR/2001/REC-SVG-20010904/DTD/svg10.dtd">
<svg version="1.0" xmlns="http://www.w3.org/2000/svg"
 width="500.000000pt" height="500.000000pt" viewBox="0 0 500.000000 500.000000"
 preserveAspectRatio="xMidYMid meet">

<g transform="translate(0.000000,500.000000) scale(0.100000,-0.100000)"
fill="#000000" stroke="none">
<path d="M0 2500 l0 -2500 2500 0 2500 0 0 2500 0 2500 -2500 0 -2500 0 0
-2500z m2726 2189 c27 -22 3 -46 -59 -60 l-62 -14 0 -45 c0 -43 1 -45 31 -48
36 -4 69 -34 61 -56 -3 -8 -23 -19 -44 -26 -53 -17 -56 -22 -49 -74 6 -41 10
-46 32 -46 55 0 88 -48 47 -68 -22 -11 -132 -7 -144 5 -5 5 -8 106 -7 224 l3
214 30 7 c37 8 146 -1 161 -13z m147 -17 c9 -10 19 -37 23 -60 4 -23 9 -42 13
-42 4 0 15 16 26 36 22 42 48 58 80 50 17 -4 22 -11 18 -26 -3 -11 -9 -20 -14
-20 -5 0 -9 -6 -9 -13 0 -7 -14 -29 -30 -49 -41 -49 -49 -102 -33 -213 14
-104 11 -125 -18 -118 -24 7 -37 36 -41 93 -1 22 -5 40 -8 40 -4 0 -15 -18
-25 -40 -31 -69 -77 -102 -91 -65 -7 17 42 155 54 155 4 0 13 13 20 30 16 35
11 103 -13 179 -9 29 -14 59 -11 67 7 20 40 17 59 -4z m-700 -23 c7 -26 -13
-49 -42 -49 -12 0 -21 -5 -21 -11 0 -5 -5 -7 -10 -4 -31 19 -56 -65 -28 -93 7
-7 36 -12 65 -12 49 0 53 -2 53 -23 0 -29 -18 -47 -45 -47 -43 0 -58 -47 -32
-103 11 -26 15 -27 57 -22 39 5 47 3 58 -15 11 -18 10 -23 -10 -40 -13 -11
-34 -20 -48 -20 -14 -1 -34 -5 -45 -9 -11 -4 -28 -6 -38 -3 -19 5 -47 61 -47
96 0 38 -30 140 -47 159 -16 17 -16 17 1 11 17 -6 17 -5 4 22 -8 16 -13 37
-11 47 3 11 -2 17 -14 17 -10 0 -14 3 -7 8 5 4 10 22 10 41 -1 20 5 37 14 41
25 13 93 27 136 29 35 1 43 -3 47 -20z m1045 -35 c15 -7 33 -14 40 -14 7 0 11
-4 7 -9 -3 -6 1 -13 8 -18 8 -4 18 -21 24 -37 7 -24 4 -43 -20 -102 -28 -67
-33 -73 -71 -85 -23 -7 -53 -11 -68 -10 -23 2 -28 -2 -33 -26 -11 -48 -36
-113 -45 -113 -5 0 -16 -3 -25 -6 -14 -6 -16 1 -10 57 6 55 12 93 30 169 30
127 38 159 46 178 5 13 7 27 5 31 -8 13 82 1 112 -15z m-1294 -2 c3 -5 7 -20
10 -35 4 -21 1 -27 -14 -27 -40 0 -50 -10 -39 -38 6 -15 12 -34 14 -42 2 -8
13 -44 25 -80 47 -143 57 -230 27 -230 -27 0 -43 28 -67 108 -7 23 -17 42 -21
42 -5 0 -6 6 -3 13 3 8 0 27 -7 43 -6 16 -13 43 -16 59 -3 17 -10 36 -15 43
-6 6 -7 12 -3 12 4 0 2 7 -5 15 -7 8 -25 15 -40 15 -37 0 -55 22 -40 49 6 12
19 21 28 21 10 0 22 4 28 9 19 18 129 37 138 23z m1531 -82 c79 -34 105 -57
105 -93 -1 -42 -28 -100 -79 -167 -24 -33 -41 -65 -40 -80 1 -24 -9 -92 -17
-117 -6 -21 -53 6 -60 34 -4 13 -3 41 0 61 13 68 14 79 6 92 -9 14 -21 -4 -56
-85 -22 -50 -49 -69 -65 -44 -4 7 -3 21 2 30 5 10 9 28 9 41 0 13 16 68 35
123 19 55 32 109 29 120 -4 16 -3 17 5 5 8 -12 12 -9 17 17 6 28 44 83 58 83
2 0 25 -9 51 -20z m-1762 -4 c6 -15 -10 -36 -27 -36 -6 0 -26 -13 -45 -29
l-35 -30 19 -40 c17 -40 20 -41 66 -41 29 0 49 5 52 13 7 17 25 -33 20 -54 -3
-10 -16 -20 -29 -23 -13 -4 -24 -13 -24 -22 0 -8 -5 -12 -10 -9 -16 10 -1 -46
18 -67 11 -13 30 -18 73 -18 l59 0 -18 -35 c-9 -19 -24 -35 -32 -35 -8 0 -30
-9 -49 -21 -18 -11 -39 -18 -46 -15 -11 4 -29 39 -108 209 -12 26 -25 47 -30
47 -4 0 -5 5 -2 10 4 6 0 21 -8 34 -8 12 -21 41 -27 64 -11 35 -11 43 4 57 9
9 16 13 16 9 0 -4 8 0 18 9 15 14 82 33 123 36 9 1 19 -5 22 -13z m-243 -158
c6 -35 15 -67 20 -73 4 -5 11 -26 15 -45 4 -19 17 -66 30 -105 12 -38 26 -92
30 -119 6 -48 6 -49 -17 -43 -13 4 -28 7 -34 7 -6 0 -24 19 -41 43 -17 23 -78
91 -135 150 -103 108 -120 137 -88 157 13 8 76 -21 90 -42 31 -43 106 -126
108 -118 2 5 -6 30 -17 56 -12 26 -21 54 -21 63 0 9 -5 22 -12 29 -7 7 -9 12
-6 12 4 0 3 13 -2 29 -9 34 11 61 46 61 18 0 23 -9 34 -62z m2296 31 c75 -40
84 -47 84 -69 0 -28 -28 -32 -75 -10 -57 26 -60 26 -84 -14 -28 -45 -27 -54
16 -98 30 -31 34 -40 23 -53 -16 -19 -24 -19 -67 2 -34 16 -36 16 -49 -2 -8
-10 -16 -33 -20 -50 -5 -27 0 -38 29 -70 29 -32 33 -40 22 -52 -19 -19 -39
-16 -98 13 -60 31 -69 41 -56 66 5 10 7 18 4 18 -2 0 4 15 15 33 11 17 20 38
20 45 0 6 8 20 18 30 9 9 24 37 32 62 8 25 17 47 20 50 3 3 16 28 30 55 25 51
46 74 66 75 6 0 38 -14 70 -31z m119 -109 c3 -5 1 -10 -4 -10 -6 0 -11 5 -11
10 0 6 2 10 4 10 3 0 8 -4 11 -10z m143 -57 c29 -21 32 -29 32 -74 0 -54 -11
-66 -55 -55 -20 5 -24 11 -19 34 7 38 -8 56 -40 48 -35 -9 -41 -41 -27 -139 6
-44 8 -83 3 -86 -4 -3 -16 -23 -27 -45 -11 -21 -30 -45 -42 -53 -31 -21 -84
-9 -114 25 -28 31 -55 77 -41 68 6 -3 13 6 16 19 7 26 50 54 63 42 3 -4 6 -24
5 -46 -2 -40 13 -56 43 -45 23 9 27 39 20 150 -6 87 -5 108 9 129 9 13 16 32
17 42 0 12 2 13 6 5 4 -11 8 -10 22 1 35 32 66 27 129 -20z m-2811 -23 c25
-22 34 -43 46 -97 8 -38 18 -67 25 -66 6 2 14 -6 17 -17 4 -11 13 -20 21 -20
8 0 14 -4 14 -9 0 -5 16 -19 35 -32 35 -24 51 -51 40 -68 -8 -15 -82 14 -142
56 -29 20 -56 34 -59 31 -3 -4 15 -37 40 -75 52 -77 58 -103 22 -103 -24 0
-70 48 -171 179 -81 104 -105 141 -105 161 0 12 20 31 57 54 73 46 115 47 160
6z m1463 -65 c172 -14 205 -18 235 -30 11 -4 56 -21 100 -38 44 -16 101 -38
127 -48 26 -11 52 -19 59 -19 18 0 203 -95 261 -134 87 -58 203 -153 259 -212
109 -114 126 -136 170 -210 24 -40 48 -74 52 -74 5 0 5 -5 2 -10 -3 -6 1 -13
9 -16 9 -3 16 -11 16 -18 0 -6 16 -35 36 -65 30 -45 130 -309 150 -396 13 -55
25 -124 30 -160 2 -22 7 -55 10 -74 6 -39 6 -273 0 -311 -3 -14 -10 -61 -16
-105 -15 -103 -53 -237 -91 -322 -10 -24 -19 -45 -19 -49 0 -8 -62 -130 -88
-174 -59 -100 -80 -143 -75 -156 3 -10 0 -12 -10 -8 -11 4 -23 -7 -40 -33 -14
-22 -53 -66 -88 -99 -34 -32 -98 -94 -141 -137 -44 -42 -82 -77 -85 -77 -3 0
-35 -22 -72 -48 -54 -39 -195 -114 -286 -153 -67 -28 -188 -69 -250 -85 -5 -1
-71 -12 -145 -24 -245 -40 -509 -18 -759 62 -92 29 -306 129 -363 169 -14 11
-30 19 -35 19 -6 0 -18 9 -28 20 -10 11 -23 20 -28 20 -12 0 -98 72 -186 155
-212 201 -380 493 -455 790 -22 87 -23 100 -37 321 -15 241 -8 314 50 539 8
32 70 199 93 250 19 43 91 159 174 278 78 112 238 276 324 333 30 20 57 39 60
43 5 7 53 39 85 57 11 6 38 21 60 34 22 12 58 31 80 42 22 11 48 24 59 30 10
5 42 17 70 25 28 8 56 19 61 23 6 4 36 13 68 20 31 7 57 16 57 20 0 4 12 7 28
7 15 0 59 6 97 13 157 27 241 30 415 15z m1560 -80 c19 -14 38 -32 43 -40 10
-18 -2 -115 -15 -115 -25 0 -68 32 -68 51 0 13 4 18 13 13 6 -4 1 5 -12 20
-24 26 -26 26 -43 8 -15 -14 -19 -38 -23 -115 -3 -85 -7 -101 -29 -130 -52
-68 -122 -84 -164 -37 -44 48 -45 55 -20 111 18 42 30 51 51 43 20 -7 28 -40
17 -69 -12 -31 8 -49 34 -30 14 10 17 21 12 40 -4 16 -3 24 3 21 15 -10 24 33
11 49 -9 11 -9 15 -1 15 7 0 11 17 10 43 -2 43 13 78 55 125 27 31 82 30 126
-3z m-3266 -6 c-3 -6 4 -21 18 -33 46 -41 187 -214 193 -238 7 -28 -5 -64 -32
-95 -22 -25 -96 -34 -115 -15 -7 7 -18 12 -25 12 -7 0 -13 5 -13 11 0 6 -15
25 -33 43 -91 87 -153 165 -155 197 -5 69 32 109 101 109 18 0 39 5 47 10 20
13 23 12 14 -1z m3475 -210 c54 -63 46 -118 -24 -171 -25 -18 -45 -39 -45 -47
0 -8 -3 -12 -6 -8 -3 3 -20 -7 -38 -23 -17 -17 -35 -30 -39 -30 -7 0 -64 -37
-77 -50 -14 -14 -59 -9 -82 9 -34 27 -59 141 -31 141 7 0 13 5 13 10 0 10 47
57 170 169 37 34 50 41 85 40 34 -1 45 -7 74 -40z m-3667 -10 c10 -5 18 -16
18 -24 0 -17 -42 -30 -66 -21 -20 8 -44 -10 -44 -32 0 -8 7 -24 17 -34 13 -15
32 -18 111 -18 86 0 98 -2 137 -27 75 -49 86 -112 30 -162 -20 -17 -45 -31
-56 -31 -58 0 -112 64 -64 76 13 3 32 1 43 -5 36 -19 59 33 26 60 -11 9 -48
14 -113 14 -107 1 -158 18 -186 62 -30 46 -26 72 18 120 38 41 44 44 76 38 20
-4 44 -11 53 -16z m3912 -1245 c41 -40 32 -106 -16 -124 -18 -6 -42 -16 -52
-22 -16 -8 -18 -7 -12 7 4 12 -1 23 -14 32 -31 22 -25 93 10 110 34 17 65 16
84 -3z m-4304 -64 c1 8 7 0 15 -17 8 -19 22 -34 32 -34 16 -1 16 -2 1 -6 -10
-2 -19 -19 -23 -43 -6 -35 -10 -40 -41 -46 -65 -12 -114 49 -83 104 16 29 80
56 91 38 5 -7 8 -6 8 4z m3345 -1415 c28 -27 34 -58 10 -49 -8 4 -31 3 -50 0
-26 -5 -35 -12 -35 -26 0 -36 42 -52 132 -51 101 1 143 -16 174 -73 17 -30 20
-45 13 -69 -11 -37 -44 -74 -86 -93 -35 -17 -57 -10 -100 29 -32 28 -14 60 30
55 18 -1 35 -7 38 -12 11 -15 39 2 39 24 0 12 -6 28 -14 36 -13 13 -121 31
-189 32 -16 0 -39 9 -51 21 -12 12 -26 18 -29 14 -4 -3 -7 3 -7 15 0 31 -1 35
-14 54 -22 31 -8 73 32 96 48 28 77 27 107 -3z m-2298 -45 c-3 -22 -19 -70
-36 -106 -17 -36 -31 -70 -31 -76 0 -5 19 4 43 19 23 16 56 35 72 43 17 8 38
20 47 28 20 16 68 9 68 -11 0 -6 -9 -23 -20 -37 -11 -14 -20 -30 -20 -36 0 -7
-6 -14 -13 -17 -15 -5 -149 -178 -193 -248 -15 -24 -27 -56 -26 -72 1 -36 28
-67 58 -67 23 0 54 -33 54 -59 0 -11 -10 -12 -45 -8 -63 9 -119 49 -146 105
l-21 47 23 44 c26 49 102 146 137 174 24 20 30 47 9 47 -7 0 -29 -16 -47 -35
-45 -46 -84 -46 -86 0 -1 17 2 35 5 40 4 6 13 24 20 40 l13 30 -33 -30 c-18
-16 -45 -44 -61 -62 -16 -17 -36 -30 -46 -28 -9 2 -25 4 -34 4 -25 1 -22 33 5
62 50 53 204 194 241 221 56 40 70 38 63 -12z m2087 -86 c25 -9 19 -33 -15
-65 -36 -33 -35 -60 4 -105 l24 -27 34 24 c19 13 37 28 40 33 9 12 29 -27 29
-56 0 -25 -20 -64 -20 -39 0 11 -3 11 -15 1 -21 -18 -19 -37 11 -75 23 -31 28
-33 52 -23 15 7 32 18 38 25 6 7 14 10 17 6 4 -3 7 -2 7 4 0 8 8 8 25 0 14 -7
25 -17 25 -24 0 -29 -126 -127 -155 -121 -10 1 -66 75 -126 163 -115 169 -128
205 -84 229 11 6 33 21 48 34 31 24 37 25 61 16z m-1834 -102 c0 -19 -38 -84
-105 -182 -29 -41 -64 -96 -80 -122 -22 -40 -32 -48 -55 -48 -49 0 -48 32 2
105 23 34 75 110 115 168 65 94 74 104 97 100 15 -3 26 -12 26 -21z m93 -36
c16 -13 12 -24 -63 -170 -44 -86 -79 -162 -77 -168 1 -7 18 -23 37 -36 53 -37
59 -51 35 -75 -21 -22 -75 0 -147 58 -58 47 -69 58 -45 49 13 -5 20 6 77 111
31 58 124 207 145 232 13 15 16 15 38 -1z m1541 -43 c10 -79 26 -137 45 -163
10 -14 52 -47 94 -75 82 -54 100 -78 71 -99 -26 -20 -66 -4 -126 48 -29 25
-56 46 -60 46 -20 0 -17 -44 6 -86 14 -26 26 -54 26 -64 0 -24 -25 -43 -48
-36 -20 7 -72 96 -72 124 0 10 -9 28 -20 42 -11 14 -20 33 -20 42 0 9 -4 19
-9 22 -4 3 -20 39 -36 81 -22 61 -25 78 -15 90 21 26 37 17 63 -37 14 -29 33
-62 42 -73 18 -22 18 -22 -1 103 -5 33 -3 47 11 62 29 32 43 24 49 -27z
m-1329 -90 c-4 -21 -8 -45 -9 -53 0 -8 -4 -17 -7 -20 -9 -7 -22 -50 -15 -50 3
0 28 25 57 55 39 42 59 55 80 55 16 0 29 -3 29 -7 0 -3 -17 -29 -38 -57 -75
-98 -82 -131 -63 -281 5 -33 6 -66 3 -72 -5 -14 -40 -17 -58 -5 -11 7 -26 110
-24 167 l1 29 -26 -24 c-13 -13 -31 -44 -38 -69 -12 -43 -15 -46 -47 -46 -34
0 -35 1 -34 40 0 45 5 67 17 76 5 3 10 12 11 20 4 20 38 97 88 201 4 10 8 23
8 30 0 19 32 48 53 48 17 0 18 -4 12 -37z m1055 -23 c14 -4 21 -8 16 -9 -5 -1
-2 -9 6 -18 9 -10 23 -31 32 -48 32 -59 116 -181 147 -213 19 -21 20 -27 9
-48 -19 -34 -54 -31 -82 6 -36 49 -88 36 -88 -23 0 -44 -17 -67 -49 -67 l-28
0 -12 128 c-6 70 -13 166 -14 214 -2 96 -1 98 63 78z m-158 -49 c-1 -6 5 -28
13 -47 8 -20 15 -46 15 -57 0 -11 4 -34 9 -51 13 -42 31 -124 35 -161 2 -16 5
-34 6 -40 7 -30 -2 -43 -31 -47 -41 -6 -54 19 -58 113 -2 51 -20 72 -55 63
-30 -7 -30 -1 -12 -135 5 -36 2 -49 -12 -61 -19 -18 -61 -8 -63 14 -1 7 -3 27
-3 43 -6 100 -20 191 -30 197 -8 6 -7 8 2 8 7 0 11 4 8 9 -4 5 -8 35 -11 66
-3 32 -9 63 -15 70 -8 9 -5 14 7 19 10 3 27 10 38 15 16 7 21 5 21 -8 2 -39
26 -157 33 -164 5 -5 19 -7 32 -5 20 2 24 9 25 38 1 19 -4 51 -11 71 -7 19
-11 47 -8 62 5 25 6 26 37 13 17 -7 30 -19 28 -25z m-293 -2 c30 -11 34 -18
44 -81 3 -23 0 -27 -30 -30 -19 -2 -33 1 -33 7 0 5 -7 19 -15 30 -14 18 -16
18 -32 3 -15 -16 -15 -20 1 -62 11 -28 34 -60 59 -81 55 -47 66 -70 67 -132 0
-44 -4 -55 -26 -72 -39 -31 -133 -30 -169 2 -42 36 -37 116 7 117 4 0 19 -18
33 -40 26 -41 32 -44 59 -34 32 12 18 59 -34 115 -60 64 -77 94 -86 147 -14
91 60 144 155 111z"/>
<path d="M3155 4530 c-13 -20 -17 -107 -6 -114 33 -21 71 26 71 89 0 32 -3 35
-29 35 -17 0 -33 -4 -36 -10z"/>
<path d="M3406 4408 c-26 -59 -20 -72 31 -66 20 2 29 12 40 42 12 35 11 41 -3
58 -27 29 -44 21 -68 -34z"/>
<path d="M1094 4162 c-23 -15 -20 -38 9 -75 35 -45 66 -47 81 -5 8 24 6 31
-22 58 -32 30 -48 36 -68 22z"/>
<path d="M2410 4083 c-70 -3 -181 -18 -245 -35 -97 -24 -121 -31 -140 -38 -11
-4 -36 -13 -55 -20 -55 -18 -280 -132 -280 -142 0 -4 -6 -8 -14 -8 -7 0 -19
-6 -25 -14 -7 -8 -30 -24 -52 -36 -46 -23 -187 -146 -251 -217 -24 -27 -46
-50 -49 -53 -13 -12 -139 -189 -139 -196 0 -4 -11 -19 -24 -33 -13 -15 -40
-66 -61 -116 -36 -89 -95 -299 -95 -342 0 -12 -4 -24 -9 -27 -17 -11 -24 -82
-28 -296 -5 -254 -2 -272 78 -525 47 -148 60 -176 137 -300 120 -191 241 -323
422 -456 141 -104 200 -138 345 -199 35 -15 138 -49 200 -66 65 -18 185 -31
366 -40 l116 -6 7 41 c8 50 3 61 -24 54 -11 -3 -26 0 -33 6 -10 8 -19 6 -37
-6 -21 -15 -24 -15 -36 1 -10 14 -17 15 -32 7 -10 -6 -36 -11 -57 -13 -29 -2
-42 3 -56 21 -26 32 -24 42 14 78 52 51 103 51 119 2 3 -8 13 -6 32 6 21 14
32 16 45 8 12 -8 22 -7 36 3 10 8 25 14 33 14 12 0 12 -3 0 -22 -36 -56 -42
-68 -35 -74 11 -11 57 37 57 60 0 12 3 31 6 44 6 21 8 22 25 6 12 -11 29 -15
51 -11 18 2 41 0 51 -5 15 -7 17 -4 17 26 0 43 9 49 45 30 35 -18 45 -31 45
-63 0 -34 23 -12 48 47 20 47 37 66 78 89 18 10 21 9 20 -4 0 -9 4 -18 10 -20
6 -2 11 9 11 27 0 45 9 47 56 12 l44 -31 -1 59 c-1 64 4 68 44 45 36 -21 39
-19 46 23 3 21 14 49 25 63 18 23 19 24 48 7 18 -10 33 -13 36 -7 15 24 27 6
22 -33 -7 -50 -33 -88 -75 -107 -17 -8 -33 -24 -36 -37 -8 -29 -40 -47 -72
-41 -18 3 -24 0 -24 -13 0 -20 -68 -82 -76 -69 -3 5 -18 9 -34 9 -22 0 -28 4
-24 15 8 20 -3 19 -32 -4 -24 -19 -23 -34 2 -24 8 3 14 -1 14 -9 0 -8 -20 -19
-45 -27 -25 -7 -49 -18 -53 -25 -4 -6 -21 -11 -38 -12 -29 0 -30 1 -27 38 2
21 -2 38 -7 38 -6 0 -10 -4 -10 -9 0 -15 -100 -106 -123 -111 -12 -3 -29 -20
-38 -38 -9 -17 -22 -38 -28 -46 -10 -12 -5 -14 31 -11 114 8 305 50 383 84 11
5 47 19 80 32 279 105 545 336 743 644 6 11 17 31 24 45 7 14 17 32 23 40 14
17 77 165 99 230 24 72 47 159 62 240 17 89 18 414 3 505 -16 90 -50 229 -60
240 -5 5 -9 17 -9 27 0 10 -4 26 -10 36 -5 9 -35 73 -68 142 -99 211 -201 345
-397 520 -49 44 -93 80 -97 80 -8 0 -124 72 -145 90 -21 18 -129 69 -199 95
-38 14 -78 29 -89 34 -11 5 -40 14 -65 21 -25 7 -56 16 -70 21 -14 5 -34 8
-45 7 -11 -1 -42 3 -70 10 -53 11 -245 20 -355 15z m925 -1000 c-10 -241 -8
-235 -65 -235 -53 0 -50 -11 -50 192 l0 190 61 0 61 0 -7 -147z m-452 88 c26
-22 38 -47 42 -84 2 -18 13 -86 25 -152 12 -66 23 -131 25 -145 18 -108 24
-138 33 -161 6 -15 8 -29 6 -32 -3 -3 -1 -22 5 -44 14 -52 47 -195 61 -263 6
-30 15 -68 20 -85 28 -98 20 -151 -24 -181 -31 -20 -68 -13 -100 20 -23 22
-34 66 -44 168 -2 20 -50 47 -93 53 -32 4 -78 -12 -80 -27 -2 -9 -5 -25 -9
-35 -1 -5 -2 -11 -1 -15 0 -5 -4 -8 -9 -8 -6 0 -10 -11 -10 -24 0 -76 -32
-119 -98 -131 -37 -6 -62 15 -62 52 0 23 34 240 60 383 5 30 17 100 26 155 8
55 24 139 34 186 21 91 25 119 36 239 5 57 12 83 31 108 39 52 84 60 126 23z
m-1407 -27 c85 -52 118 -125 118 -254 -1 -88 -26 -196 -54 -225 -25 -26 -25
-42 -2 -54 23 -12 52 -136 52 -221 0 -148 -32 -267 -83 -312 -29 -25 -84 -49
-121 -53 -17 -2 -63 -6 -103 -10 -91 -9 -119 -2 -138 35 -22 43 -22 1075 1
1105 18 24 85 32 201 24 67 -4 90 -10 129 -35z m887 27 c66 -53 85 -74 107
-117 17 -35 24 -66 24 -110 1 -83 -15 -102 -80 -94 l-47 5 -23 64 c-24 68 -39
88 -64 91 -39 6 -51 -2 -72 -47 -23 -47 -23 -53 -20 -372 4 -380 7 -394 79
-399 33 -2 44 1 57 20 9 12 16 34 16 49 0 78 38 111 108 93 28 -7 38 -16 44
-39 23 -81 -25 -205 -99 -258 -48 -34 -57 -37 -124 -44 -81 -8 -170 50 -205
133 -19 44 -24 149 -27 519 -2 354 2 383 56 440 53 57 122 87 192 84 35 -2 67
-9 78 -18z m1506 -5 c14 -8 33 -22 42 -32 24 -29 49 -120 49 -179 0 -60 -14
-78 -62 -78 -38 0 -78 42 -78 82 0 42 -42 83 -82 79 -39 -4 -67 -40 -79 -101
-15 -81 11 -132 139 -272 95 -103 117 -136 142 -214 30 -93 29 -272 -2 -335
-47 -97 -213 -130 -335 -67 -48 24 -75 73 -99 173 -20 87 -14 113 34 144 52
34 88 0 111 -108 19 -89 80 -116 135 -61 76 76 34 200 -128 373 -80 85 -126
153 -144 210 -10 33 -5 208 7 257 15 61 63 121 112 140 42 16 200 8 238 -11z
m-2011 -2 c27 -19 25 30 27 -664 0 -250 -3 -433 -9 -445 -13 -28 -37 -44 -67
-45 -26 0 -69 32 -69 53 0 7 -2 254 -3 550 -2 523 -1 539 17 553 26 19 76 18
104 -2z m112 -1749 c0 -5 -23 -26 -51 -45 -54 -37 -107 -96 -95 -107 4 -4 32
-2 64 5 31 6 67 9 79 6 24 -7 38 -44 20 -56 -19 -12 -37 -9 -37 5 0 16 -30 19
-47 4 -7 -5 -13 -15 -13 -23 0 -18 38 -28 55 -14 7 6 48 12 90 14 67 2 78 0
91 -18 12 -18 11 -22 -6 -41 -11 -12 -20 -24 -20 -28 0 -13 31 -7 36 8 6 14
64 55 78 55 16 0 3 -37 -19 -54 -14 -10 -25 -25 -25 -32 0 -21 28 -17 42 5 13
22 38 17 38 -8 0 -10 -14 -22 -35 -30 -35 -12 -55 -9 -133 20 -13 5 -34 9 -46
9 -13 0 -38 14 -56 30 -39 37 -60 39 -60 5 0 -34 -38 -43 -76 -19 -25 17 -25
19 -8 24 14 4 19 14 20 43 0 36 -1 38 -38 43 -49 8 -63 32 -43 71 25 47 20 63
-19 63 -18 0 -52 -7 -74 -14 -27 -10 -44 -11 -48 -5 -7 11 24 38 43 39 7 0 28
9 48 20 22 12 55 20 88 21 29 0 61 4 72 9 27 12 85 9 85 -5z"/>
<path d="M2829 2770 c-5 -21 -30 -177 -35 -226 -6 -55 -4 -63 18 -89 25 -28
26 -29 52 -12 14 10 26 26 26 36 0 61 -54 318 -61 291z"/>
<path d="M1324 3020 c-30 -12 -35 -31 -41 -162 -4 -87 -3 -121 7 -133 13 -16
95 -21 117 -7 40 25 54 150 27 234 -12 36 -23 50 -49 62 -18 9 -35 16 -37 15
-1 0 -12 -4 -24 -9z"/>
<path d="M1323 2548 c-31 -15 -33 -26 -40 -183 -6 -161 -1 -175 65 -175 73 1
102 51 102 173 0 129 -20 177 -80 190 -14 3 -35 0 -47 -5z"/>
<path d="M1827 1374 c-8 -8 1 -24 14 -24 5 0 9 7 9 15 0 15 -12 20 -23 9z"/>
<path d="M2014 1166 c-10 -8 -16 -17 -13 -21 12 -11 79 7 79 21 0 18 -41 18
-66 0z"/>
<path d="M3189 1302 c-7 -40 -5 -53 10 -50 21 4 26 44 7 51 -9 4 -17 3 -17 -1z"/>
<path d="M3087 1229 c-10 -35 -9 -39 7 -39 22 0 26 13 12 39 l-13 23 -6 -23z"/>
<path d="M2711 1103 c-29 -30 -34 -53 -11 -53 14 0 52 59 47 73 -2 7 -16 0
-36 -20z"/>
<path d="M2496 1065 c-13 -19 -13 -25 -3 -25 17 0 37 20 37 37 0 21 -16 15
-34 -12z"/>
<path d="M2413 1068 c-40 -10 -50 -25 -23 -33 13 -4 29 1 45 14 31 23 22 31
-22 19z"/>
<path d="M876 3948 c-6 -30 -2 -38 41 -79 27 -26 61 -63 77 -83 22 -29 35 -36
62 -36 28 0 34 4 34 21 0 23 -22 52 -111 147 -68 71 -93 78 -103 30z"/>
<path d="M4239 3733 c-61 -51 -95 -87 -97 -102 -9 -63 50 -43 167 56 67 55 81
73 79 93 -2 19 -10 26 -29 28 -21 2 -47 -14 -120 -75z"/>
<path d="M3050 503 c0 -31 4 -43 14 -43 24 0 25 13 5 50 l-18 35 -1 -42z"/>
</g>
</svg>
